<svg width="40" height="35" viewBox="0 0 40 35" fill="none" xmlns="http://www.w3.org/2000/svg">
<path fill-rule="evenodd" clip-rule="evenodd" d="M23.5298 0V35H19.5133L10.1014 25.6667H3.52948C1.58354 25.6667 0 24.0963 0 22.1667V12.8333C0 10.9037 1.58354 9.33334 3.52948 9.33334H10.1014L19.5133 0H23.5298ZM21.1769 2.33333H20.4874L11.7649 10.983V24.017L20.4874 32.6667H21.1769V2.33335V2.33333ZM34.8329 5.1247C38.1647 8.43102 40 12.8247 40 17.5007C40 22.1744 38.1647 26.568 34.8329 29.8744L33.1693 28.2247C36.0588 25.3594 37.647 21.5514 37.647 17.5007C37.647 13.4477 36.0588 9.6397 33.1693 6.77437L34.8329 5.1247ZM29.8514 10.0777C31.8443 12.082 32.9408 14.7187 32.9408 17.5C32.9408 20.2813 31.8443 22.918 29.8514 24.9223L28.1737 23.2843C29.7314 21.7187 30.5878 19.6653 30.5878 17.5C30.5878 15.3347 29.7314 13.2813 28.1737 11.7157L29.8514 10.0777ZM9.41194 11.6667H3.52948C2.8824 11.6667 2.35298 12.1893 2.35298 12.8333V22.1667C2.35298 22.8107 2.8824 23.3333 3.52948 23.3333H9.41194V11.6667Z" fill="white"/>
</svg>
