<svg width="40" height="43" viewBox="0 0 40 43" fill="none" xmlns="http://www.w3.org/2000/svg">
<path fill-rule="evenodd" clip-rule="evenodd" d="M23.5298 0V43H19.5133L10.1014 31.5333H3.52948C1.60302 31.5333 0.0317083 29.6425 0.000479167 27.3043L0 27.2333V15.7667C0 13.4196 1.55204 11.5053 3.47121 11.4672L3.52948 11.4667H10.1014L19.5133 0H23.5298ZM21.1769 2.86666H20.4874L11.7649 13.4934V29.5066L20.4874 40.1333H21.1769V2.86669V2.86666ZM38.3365 13.3183L40 15.3449L34.9506 21.4967L40 27.6513L38.3365 29.678L33.2847 23.5263L28.2353 29.678L26.5718 27.6513L31.6212 21.4967L26.5718 15.3449L28.2353 13.3182L33.2847 19.47L38.3365 13.3182V13.3183ZM9.41194 14.3333H3.52948C2.88887 14.3333 2.36358 14.9627 2.35315 15.7429L2.35298 15.7666V27.2333C2.35298 28.0166 2.87188 28.6538 3.5101 28.6664L3.52948 28.6666H9.41194V14.3333Z" fill="white"/>
</svg>
